<svg xmlns="http://www.w3.org/2000/svg" viewBox="0 0 280 280">
  <g fill="#2D2926" transform="translate(0, 23.5)">
    <path d="M260.514 18.631v64.201c.088 11.528-.403 21.714-1.476 30.56-1.07 8.847-3.261 16.24-6.566 22.183-3.307 5.941-7.887 10.432-13.739 13.469-5.852 3.04-13.469 4.557-22.853 4.557-3.483 0-7.351-.333-11.592-1.002-4.244-.672-8.624-1.767-13.136-3.285-4.513-1.518-9.003-3.486-13.472-5.898-4.467-2.413-8.712-5.36-12.733-8.848l.132 13.81c.044-.002.085-.005.085-.005-.016.002-.025 2.462-.034 5.346l.034 3.65-.046-.009c-.01 2.575-.022 4.827-.042 5.313-.67 16.76-6.534 34.042-17.535 47.236-13.981 16.77-32.307 21.845-53.588 22.188-5.364.087-18.123-1.917-23.261-3.659-5.137-1.743-9.819-3.884-14.376-7.057-4.557-3.172-8.965-7.121-12.545-11.632-3.53-4.443-6.423-9.412-9.15-14.505-2.725-5.094-4.038-11.239-5.602-16.912-1.563-5.675-2.344-11.416-2.344-17.223v-12.736L0 138.858v-12.33h26.673V18.899L2.68 15.28V0h93.69v15.28l-31.632 3.35v107.898h40.345v23.455H64.738v24.993c0 6.612.344 12.683 1.675 16.407 3.766 10.559 11.345 20.553 27.426 20.985 7.655.207 14.358-1.481 19.67-5.064-2.14-3.35-3.397-7.317-3.397-11.587 0-10.316 7.247-18.929 16.924-21.054.021-.216.043-.426.064-.643v-23.037V18.63h1.793l-19.57-3.35V0h73.585v15.28l-15.95 3.35v101.464c4.29 3.127 8.801 5.295 13.536 6.5 4.736 1.207 9.519 1.81 14.343 1.81 6.521 0 11.639-1.251 17.491-4.291 5.852-3.037 10.432-7.527 13.739-13.469 3.305-5.941 5.494-13.334 6.566-22.182 1.073-8.846 1.564-19.032 1.476-30.56V18.763l-20.773-3.483V0h77.87v15.28l-19.03 3.35z"/>
  </g>
</svg>
