<svg width="280" height="280" viewBox="0 -23.5 280 280" xmlns="http://www.w3.org/2000/svg">
  <g fill="none" fill-rule="evenodd">
    <g transform="translate(-254, -182)" fill="#2D2926">
      <path d="M514.58627,200.980619 L514.58627,265.181951 C514.67427,276.70995 514.183603,286.895284 513.11027,295.74195 C512.039603,304.588616 509.848937,311.98195 506.543604,317.924616 C503.236937,323.865949 498.656937,328.356616 492.804937,331.393949 C486.952937,334.433949 479.335604,335.951282 469.951604,335.951282 C466.468938,335.951282 462.600938,335.617949 458.359605,334.948616 C454.115605,334.276616 449.735605,333.181949 445.223605,331.663282 C440.710272,330.145949 436.220939,328.177949 431.751605,325.765949 C427.284939,323.352616 423.039606,320.405949 419.018272,316.917949 L419.150272,330.727282 C419.194272,330.725949 419.235606,330.723282 419.235606,330.723282 C419.219606,330.724616 419.210272,333.184616 419.200939,336.068616 L419.235606,339.719282 L419.188939,339.709949 C419.179606,342.284615 419.167606,344.536615 419.147606,345.023282 C418.478272,361.783282 412.614273,379.064615 401.612939,392.259281 C387.631607,409.028614 369.306274,414.104614 348.024941,414.44728 C342.660941,414.533947 329.902275,412.529947 324.763608,410.788614 C319.626275,409.045947 314.944942,406.904614 310.387608,403.731281 C305.830275,400.559281 301.422275,396.609947 297.842275,392.099281 C294.312942,387.656614 291.419609,382.687281 288.692942,377.593948 C285.967609,372.500615 284.654276,366.355282 283.090276,360.681948 C281.527609,355.007282 280.746276,349.265949 280.746276,343.459282 L280.746276,330.723282 L254.072943,321.207283 L254.072943,308.87795 L280.746276,308.87795 L280.746276,201.248619 L256.752943,197.629952 L256.752943,182.349953 L350.442274,182.349953 L350.442274,197.629952 L318.810275,200.980619 L318.810275,308.87795 L359.155607,308.87795 L359.155607,332.332616 L318.810275,332.332616 L318.810275,356.325948 C318.810275,362.937948 319.154275,369.008615 320.484942,372.732615 C324.251608,383.291281 331.830275,393.285948 347.911608,393.717948 C355.566274,393.924614 362.26894,392.236614 367.58094,388.653948 C365.44094,385.304614 364.183607,381.336615 364.183607,377.067281 C364.183607,366.751282 371.430274,358.137948 381.107607,356.012615 C381.12894,355.796615 381.150273,355.587282 381.171607,355.369948 L381.171607,332.332616 L381.171607,200.980619 L382.96494,200.980619 L363.394274,197.629952 L363.394274,182.349953 L436.979605,182.349953 L436.979605,197.629952 L421.030272,200.980619 L421.030272,302.444616 C425.319606,305.571283 429.831605,307.739283 434.566272,308.944616 C439.302272,310.151283 444.084938,310.75395 448.908938,310.75395 C455.430271,310.75395 460.547605,309.50195 464.255605,307.000616 C467.963604,304.49795 470.711604,300.923283 472.499604,296.279283 C474.283604,291.62995 475.402271,285.95795 475.850271,279.255284 C476.296938,272.552617 476.519604,265.003284 476.519604,256.603284 L476.519604,201.112619 L455.746271,197.629952 L455.746271,182.483286 L533.616936,182.349953 L533.616936,197.629952 L514.58627,200.980619 Z" transform="translate(393.8449, 298.4) scale(-1, 1) rotate(-180) translate(-393.8449, -298.4)"/>
    </g>
  </g>
</svg>
