<?xml version="1.0" encoding="UTF-8"?>
<svg width="420px" height="420px" viewBox="0 0 420 420" version="1.1" xmlns="http://www.w3.org/2000/svg" xmlns:xlink="http://www.w3.org/1999/xlink">
    <title>path3</title>
    <g id="Page-1" stroke="none" stroke-width="1" fill="none" fill-rule="evenodd">
        <g id="fh-marque_new" transform="translate(-184, -530)" fill="#2D2926" fill-rule="nonzero">
            <path d="M536.4596,642.174275 L458.590269,642.307608 L458.590269,657.454275 L479.363601,660.938274 L479.363601,716.427606 C479.363601,724.827606 479.140935,732.378273 478.692935,739.079606 C478.246268,745.782272 477.126268,751.455605 475.342268,756.103605 C473.555602,760.747605 470.806268,764.322272 467.098268,766.824938 C463.390268,769.326272 458.272935,770.578272 451.751602,770.578272 C446.927602,770.578272 442.144936,769.976938 437.410269,768.768938 C432.675603,767.563605 428.162269,765.395605 423.872936,762.268939 L423.872936,660.804941 L439.822269,657.454275 L439.822269,642.174275 L366.236938,642.174275 L366.236938,657.454275 L385.807604,660.804941 L384.01427,660.804941 L384.01427,792.156938 L384.01427,815.194271 C383.99427,815.411604 383.971604,815.622271 383.951604,815.836937 C374.274271,817.963604 367.027604,826.575604 367.027604,836.891603 C367.027604,841.160937 368.283604,845.128936 370.423604,848.479603 C365.112938,852.060936 358.408938,853.748936 350.754271,853.54227 C334.674272,853.11027 327.095605,843.115603 323.327605,832.55827 C321.996939,828.832937 321.654272,822.763604 321.654272,816.150271 L321.654272,792.156938 L361.998271,792.156938 L361.998271,768.702272 L321.654272,768.702272 L321.654272,660.804941 L353.286271,657.454275 L353.286271,642.174275 L259.595607,642.174275 L259.595607,657.454275 L283.58894,661.072941 L283.58894,768.702272 L256.915607,768.702272 L256.915607,781.032938 L283.58894,790.548938 L283.58894,803.283604 C283.58894,809.090271 284.370273,814.832937 285.93294,820.50627 C287.49694,826.179604 288.811606,832.324937 291.536939,837.41827 C294.262273,842.511603 297.156939,847.480936 300.684939,851.924936 C304.266272,856.43427 308.672939,860.384936 313.230272,863.555603 C317.788939,866.728936 322.468939,868.870269 327.606272,870.612936 C332.744938,872.355602 345.503605,874.358269 350.868938,874.271602 C372.150271,873.928936 390.47427,868.854269 404.456937,852.083603 C415.456936,838.89027 421.320936,821.607604 421.99027,804.847604 C422.01027,804.360938 422.02227,802.110271 422.031603,799.534271 L422.07827,799.543604 L422.043603,795.894271 C422.052936,793.008938 422.06227,790.548938 422.07827,790.548938 C422.07827,790.548938 422.03827,790.550271 421.992936,790.551605 L421.860936,776.743605 C425.882269,780.230271 430.127603,783.176938 434.594269,785.591605 C439.064936,788.003605 443.554269,789.970271 448.066269,791.487604 C452.578269,793.007604 456.958269,794.100938 461.202269,794.772938 C465.443602,795.442271 469.311602,795.775604 472.795602,795.775604 C482.178268,795.775604 489.796934,794.258271 495.648934,791.218271 C501.500934,788.180938 506.080934,783.691605 509.387601,777.748938 C512.692934,771.807605 514.882267,764.412938 515.952934,755.566272 C517.026267,746.719606 517.516934,736.534273 517.428934,725.006273 L517.428934,660.804941 L536.4596,657.454275 L536.4596,642.174275 Z M393.844937,949.334267 C278.20094,949.334267 184.452942,855.58627 184.452942,739.942272 C184.452942,624.298275 278.20094,530.550278 393.844937,530.550278 C509.488934,530.550278 603.236932,624.298275 603.236932,739.942272 C603.236932,855.58627 509.488934,949.334267 393.844937,949.334267" id="path3" transform="translate(393.8449, 739.9423) scale(-1, 1) rotate(-180) translate(-393.8449, -739.9423)"></path>
        </g>
    </g>
</svg>